# xmcd CD database file
#
# Track frame offsets:
#	150
#	15610
#	33207
#	49029
#	61415
#	72707
#	83559
#	100323
#	113642
#	126040
#	138403
#	150433
#	165580
#	181032
#
# Disc length: 2632 seconds
#
# Revision: 0
# Processed by: cddbd v1.5.2PL0 Copyright (c) Steve Scherf et al.
# Submitted via: CDex 1.51
#
DISCID=ab0a460e
DTITLE=get up and dance special nr 62 - get up and dance special nr.62
DYEAR=2008
DGENRE=Country
TTITLE0=t'n't waltz
TTITLE1=sempr sempre
TTITLE2=my veronica
TTITLE3=run it back
TTITLE4=party line cha
TTITLE5=irish spirit
TTITLE6=cumbia
TTITLE7=drown me
TTITLE8=laid back
TTITLE9=when i cry
TTITLE10=don't cry on my shoulder
TTITLE11=cath the rain
TTITLE12=high time
TTITLE13=yeah right
EXTD=YEAR: 2008
EXTT0=
EXTT1=
EXTT2=
EXTT3=
EXTT4=
EXTT5=
EXTT6=
EXTT7=
EXTT8=
EXTT9=
EXTT10=
EXTT11=
EXTT12=
EXTT13=
PLAYORDER=
